<svg width="36" height="34" viewBox="0 0 36 34" fill="none" xmlns="http://www.w3.org/2000/svg">
<path d="M6.43695 33.4186L4.85193 33.4205C4.41415 33.4205 3.97449 33.4394 3.5405 33.3733C1.82901 33.1129 0.883651 31.6335 0.879883 29.9975V7.57853C0.883657 5.92177 1.43652 4.44427 3.23859 3.9612C3.92169 3.77628 4.71043 3.8461 5.41426 3.84421H7.70128C7.78431 2.96677 7.51258 1.86664 8.0598 1.12321C9.0297 -0.195801 11.562 0.170265 11.7224 2.02895C11.7696 2.58182 11.6262 3.1498 11.7243 3.84044L24.3332 3.86875C24.2879 3.39134 24.2653 2.2214 24.3861 1.73457L24.3955 1.69683C24.6163 0.832578 25.3862 0.436321 26.2221 0.36275L26.3862 0.355203C27.8958 0.341994 28.3524 1.42509 28.3562 2.74975L28.3581 3.83853L30.9677 3.84608C31.5093 3.84608 32.1207 3.80645 32.649 3.92533C34.168 4.26498 35.1644 5.54625 35.1738 7.0992V29.6617C35.1719 29.9862 35.1814 30.3259 35.1342 30.6467C34.938 32.0034 33.8793 33.1639 32.5038 33.3696C32.1132 33.4281 31.715 33.4186 31.3207 33.4186L6.43695 33.4186ZM4.10467 13.6656C3.98391 13.6694 3.6518 13.6449 3.55934 13.6977V30.6958H31.8867L32.466 30.6901L32.4849 13.666L4.10467 13.6656Z" fill="#177285"/>
<path d="M11.7079 20.9671L7.7453 20.9803L7.72266 17.3818L11.6721 17.4007L11.7079 20.9671Z" fill="#177285"/>
<path d="M19.989 20.9773L16.0019 20.9886L16 17.3901L19.9626 17.4166L19.989 20.9773Z" fill="#177285"/>
<path d="M28.2617 20.9834L24.3066 20.9683L24.3104 17.3906L28.2938 17.4114L28.2617 20.9834Z" fill="#177285"/>
<path d="M11.6926 26.9409L7.74316 26.9484V23.3462L11.6945 23.3537L11.6926 26.9409Z" fill="#177285"/>
<path d="M19.9738 26.9409L16.0093 26.9314L15.9961 23.3481L19.9701 23.3462C20.0003 23.4179 19.9776 23.5292 19.9738 23.6085L19.9738 26.9409Z" fill="#177285"/>
<path d="M28.262 26.9398L24.3145 26.9436L24.3201 23.347L28.2695 23.3433C28.3205 24.2471 28.2828 25.1661 28.2846 26.0699L28.2903 26.6832C28.2903 26.77 28.3167 26.8662 28.262 26.9398Z" fill="#177285"/>
</svg>
