<?xml version="1.0" encoding="UTF-8"?>
<svg id="Layer_1" data-name="Layer 1" xmlns="http://www.w3.org/2000/svg" viewBox="0 0 145.98 141.4">
  <defs>
    <style>
      .cls-1 {
        fill: none;
      }

      .cls-1, .cls-2 {
        stroke-width: 20px;
      }

      .cls-2 {
        fill: #177285;
      }
    </style>
    <!-- <filter id="f1">
      <feDropShadow dx="2.5" dy="2.5" stdDeviation="1.5" flood-opacity="0.3"/>
    </filter> -->
  </defs>
  <rect class="cls-1" filter="url(#f1)" x="21.78" y="27.13" width="102.41" height="87.13"/>
  <path class="cls-2" filter="url(#f1)" d="M119.66,78.32c-.42,3.25-2.36,5.56-4.59,7.76-4.29,4.25-8.47,8.62-12.76,12.89-1.62,1.61-2.42,3.44-2.35,5.73.08,2.77.02,5.56.02,8.34v1.15c-.44.02-.77.05-1.09.05-7.16,0-14.33-.02-21.49.02-.92,0-1.1-.29-1.09-1.14.03-6.8.02-13.6.02-20.39,0-4.29,1.53-7.86,4.68-10.79,6.49-6.02,12.92-12.1,19.42-18.11.79-.72,1.85-1.15,2.75-1.76.28-.19.61-.52.64-.82.64-6.13,1.24-12.25,1.86-18.38.21-2.13.35-4.28.74-6.38.57-3.13,3.2-5.26,6.36-5.38,2.93-.11,5.65,1.87,6.56,4.76.11.35.23.69.35,1.04v41.41h0ZM96.05,110.22c0-1.96.05-3.8,0-5.63-.11-3.28,1.04-5.97,3.36-8.28,4.69-4.67,9.27-9.44,13.96-14.11,1.65-1.64,2.39-3.48,2.39-5.82-.05-12.52-.02-25.06-.02-37.58,0-.43.02-.87-.04-1.3-.16-1.51-1.52-2.58-3.02-2.4-1.48.18-2.39,1.23-2.56,2.99-.11,1.13-.22,2.27-.33,3.4-.67,6.73-1.37,13.46-2.02,20.19-.02.28.2.72.44.85,3.97,2.13,4.74,7.68.99,10.92-2.1,1.81-4.1,3.72-6.15,5.6-2.88,2.63-5.77,5.26-8.71,7.94-.9-.99-1.76-1.94-2.65-2.92.42-.39.77-.7,1.11-1.02,4.59-4.19,9.19-8.36,13.78-12.56,1.36-1.24,1.51-2.77.41-3.98-.95-1.05-2.59-.99-3.83.16-6.54,6.11-13.08,12.23-19.61,18.35-2.19,2.05-3.24,4.59-3.24,7.6.02,5.53,0,11.05,0,16.58v1.02h15.78-.02Z"/>
  <path class="cls-2" filter="url(#f1)" d="M41.48,114.16v-1.12c0-2.81-.05-5.63.02-8.44.05-2.22-.72-4.01-2.29-5.56-3.51-3.48-6.96-7.03-10.42-10.56-1.54-1.57-3.1-3.14-4.59-4.76-1.7-1.87-2.4-4.15-2.4-6.64-.02-12.99-.02-26,0-38.99,0-3.53,2.32-6.32,5.56-6.85,3.34-.55,6.47,1.21,7.46,4.44.47,1.51.56,3.15.72,4.75.71,6.89,1.38,13.79,2.06,20.69.05.51.19.79.73,1.03.9.39,1.83.88,2.54,1.53,6.6,6.1,13.14,12.26,19.71,18.4,3.06,2.85,4.55,6.37,4.55,10.54,0,6.87,0,13.73,0,20.6,0,.64,0,1.06-.87,1.05-7.33-.03-14.66-.02-22-.02-.22,0-.44-.04-.79-.08h0ZM61.18,110.27v-17.69c0-2.97-1.03-5.49-3.19-7.51-6.56-6.14-13.12-12.29-19.69-18.41-.35-.33-.8-.63-1.25-.79-1.15-.39-2.3.11-2.91,1.16-.63,1.08-.44,2.32.58,3.27,1.73,1.62,3.51,3.2,5.25,4.79,3.26,2.97,6.51,5.93,9.83,8.96-.9.99-1.76,1.95-2.65,2.93-5.16-4.71-10.3-9.28-15.31-14-3.23-3.04-2.52-8.13,1.3-10.35.47-.27.64-.53.58-1.09-.67-6.53-1.32-13.06-1.98-19.58-.17-1.63-.31-3.27-.61-4.87-.24-1.23-1.39-1.99-2.67-2-1.17,0-2.3.8-2.6,1.97-.13.51-.12,1.06-.12,1.6,0,12.62.02,25.26-.02,37.88,0,2.22.71,3.99,2.27,5.56,4.89,4.89,9.72,9.84,14.57,14.77,1.42,1.44,2.43,3.15,2.65,5.17.2,1.86.15,3.74.2,5.61.02.86,0,1.71,0,2.63h15.78,0Z"/>
  <path class="cls-2" filter="url(#f1)" d="M70.74,74.61c-.3-.29-.52-.49-.73-.69-7.16-7.2-14.34-14.39-21.48-21.61-5.03-5.09-5.94-12.45-2.32-18.33,3.97-6.46,11.92-8.72,18.68-5.17,2.07,1.09,3.93,2.59,5.94,3.94,1.24-.94,2.62-2.1,4.12-3.08,5.38-3.48,11.66-3.36,16.58.24,6.81,4.97,7.95,15.31,2.19,21.48-4.49,4.81-9.23,9.38-13.87,14.05-3.01,3.04-6.03,6.06-9.12,9.16h0ZM70.54,38.67c-.27-.35-.49-.73-.8-1.03-1.41-1.37-2.77-2.81-4.3-4.05-4.79-3.92-11.76-3.11-15.37,1.7-3.26,4.33-2.77,10.2,1.25,14.25,6.25,6.31,12.53,12.6,18.8,18.9.18.18.38.35.61.55.31-.29.57-.54.83-.79,5.21-5.23,10.42-10.47,15.62-15.7,1.25-1.26,2.54-2.47,3.7-3.8,4.53-5.13,2.98-13.41-3.13-16.41-4.2-2.06-8.25-1.5-11.87,1.4-1.82,1.45-3.42,3.18-5.35,4.99Z"/>
</svg>