<svg width="28" height="27" viewBox="0 0 28 27" fill="none" xmlns="http://www.w3.org/2000/svg">
<path d="M13.8701 2.375C7.68262 2.375 2.62012 7.23917 2.62012 13.23C2.62012 18.6467 6.73762 23.1425 12.1151 23.955V16.3717H9.25762V13.23H12.1151V10.8358C12.1151 8.11667 13.7914 6.62167 16.3676 6.62167C17.5939 6.62167 18.8764 6.8275 18.8764 6.8275V9.50333H17.4589C16.0639 9.50333 15.6251 10.3375 15.6251 11.1933V13.23H18.7526L18.2464 16.3717H15.6251V23.955C18.2761 23.5518 20.6901 22.2493 22.4313 20.2826C24.1725 18.3158 25.1261 15.8144 25.1201 13.23C25.1201 7.23917 20.0576 2.375 13.8701 2.375Z" fill="#F5FEFF"/>
</svg>
