<?xml version="1.0" encoding="UTF-8"?>
<svg id="Layer_1" data-name="Layer 1" xmlns="http://www.w3.org/2000/svg" viewBox="0 0 145.98 141.4">
  <defs>
    <style>
      .cls-1 {
        fill: #177285;
        stroke-width: 0px;
      }
    </style>
    <!-- <filter id="f1">
      <feDropShadow dx="2.5" dy="2.5" stdDeviation="1.5" flood-opacity="0.3"/>
    </filter> -->
  </defs>
  <path class="cls-1" filter="url(#f1)" d="M90.35,63.5v8.91c0,2.98-1.72,4.7-4.67,4.72-.79,0-1.59.03-2.38,0-1.22-.06-2.05-.88-2.09-2.03-.05-1.2.74-2.1,2-2.25.46-.06.94-.02,1.41-.03h1.33c.03-.37.07-.64.07-.92,0-3.49.02-6.98,0-10.47-.02-3.72-2.64-6.43-6.36-6.48-4.13-.06-8.28-.06-12.42,0-3.67.06-6.28,2.77-6.3,6.43-.02,3.77,0,7.54,0,11.45.86,0,1.64-.02,2.42,0,1.51.04,2.43.88,2.42,2.18,0,1.3-.94,2.11-2.44,2.13-.83,0-1.65.02-2.48,0-2.42-.07-4.22-1.85-4.23-4.27-.03-3.06,0-6.12,0-9.36h-12.29c-2.92,0-4.75-1.86-4.76-4.81v-10.69c0-5.03,2.65-8.76,7.42-10.51.1-.04.18-.1.32-.17-3.95-5.39-4.34-10.88,0-16.17,3.26-3.97,8.67-5.31,13.32-3.42,6.16,2.51,8.5,7.35,7.83,13.9,3.34-1.35,6.64-1.38,10.09.04-.49-3.27-.09-6.27,1.64-8.99,1.74-2.73,4.18-4.51,7.3-5.35,4.86-1.3,10.07.66,13.01,4.87,2.6,3.72,3.47,9.69-.91,15.08.39.17.78.33,1.15.5,4.17,1.87,6.45,5.11,6.6,9.66.13,3.81.05,7.62.03,11.45-.02,2.74-1.89,4.6-4.63,4.62-3.71.02-7.41,0-11.12,0h-1.3.02ZM103.07,59.14c0-3.8,0-7.5,0-11.21,0-3.96-2.7-6.65-6.64-6.67-3.28,0-6.55,0-9.83,0-.31,0-.62.04-1.03.06.33,3.63-.67,6.81-3.07,9.6,4.13,1.36,6.66,4.12,7.69,8.2h12.88ZM61.4,41.31c-.37-.02-.62-.04-.86-.04-3.38,0-6.77-.02-10.15,0-3.75.03-6.46,2.75-6.48,6.48-.02,3.21,0,6.4,0,9.61v1.74h12.91c1.04-4.15,3.62-6.82,7.66-8.18-2.39-2.79-3.39-5.92-3.06-9.62h0ZM56.46,36.94c4.34,0,7.82-3.48,7.84-7.82,0-4.32-3.46-7.83-7.79-7.87-4.34-.04-7.89,3.5-7.88,7.88,0,4.33,3.5,7.81,7.84,7.8h0ZM98.35,29.16c.02-4.38-3.5-7.92-7.86-7.9-4.32.02-7.81,3.53-7.81,7.85s3.49,7.83,7.82,7.84c4.34,0,7.84-3.45,7.85-7.78h0ZM81.32,42.79c.02-4.35-3.42-7.84-7.76-7.86-4.35-.03-7.84,3.39-7.89,7.73-.05,4.4,3.44,7.92,7.82,7.92s7.82-3.44,7.84-7.79Z"/>
  <path class="cls-1" filter="url(#f1)" d="M133.1,82.18c-.5,3.83-2.8,6.55-5.43,9.14-5.09,5.02-10.04,10.16-15.11,15.19-1.91,1.89-2.87,4.05-2.79,6.75.09,3.27.02,6.55.02,9.83v1.35c-.52.03-.91.06-1.3.06-8.49,0-16.97-.02-25.45.03-1.08,0-1.3-.34-1.3-1.35.04-8.01.03-16.02.02-24.03,0-5.05,1.81-9.27,5.54-12.71,7.68-7.09,15.3-14.26,22.99-21.34.93-.85,2.19-1.36,3.25-2.08.33-.22.73-.62.76-.97.76-7.22,1.47-14.44,2.2-21.66.26-2.51.42-5.04.87-7.51.68-3.69,3.78-6.2,7.52-6.34,3.46-.13,6.7,2.2,7.77,5.61.13.41.27.82.4,1.23v48.79h.02ZM105.14,119.77c0-2.31.06-4.47,0-6.64-.14-3.87,1.24-7.04,3.98-9.76,5.55-5.5,10.98-11.12,16.52-16.63,1.95-1.93,2.84-4.1,2.82-6.85-.06-14.76-.03-29.52-.03-44.28,0-.51.02-1.03-.04-1.53-.19-1.78-1.8-3.04-3.58-2.83-1.75.21-2.82,1.45-3.03,3.53-.14,1.33-.26,2.67-.39,4-.8,7.93-1.62,15.85-2.39,23.78-.03.32.24.85.51,1,4.7,2.51,5.61,9.05,1.17,12.87-2.48,2.13-4.86,4.39-7.28,6.59-3.42,3.1-6.83,6.19-10.32,9.35-1.07-1.17-2.09-2.29-3.14-3.44.51-.46.91-.83,1.32-1.19,5.44-4.93,10.88-9.86,16.31-14.79,1.61-1.46,1.78-3.26.5-4.68-1.13-1.24-3.07-1.18-4.53.19-7.74,7.2-15.49,14.41-23.22,21.62-2.6,2.42-3.85,5.41-3.84,8.96.02,6.51,0,13.03,0,19.54v1.2h18.68,0Z"/>
  <path class="cls-1" filter="url(#f1)" d="M36.2,124.41v-1.32c0-3.32-.06-6.63.02-9.95.06-2.62-.85-4.72-2.7-6.55-4.15-4.11-8.24-8.29-12.35-12.44-1.83-1.86-3.67-3.69-5.43-5.61-2.02-2.2-2.85-4.9-2.85-7.83-.02-15.31-.03-30.63,0-45.95,0-4.16,2.75-7.44,6.59-8.07,3.96-.65,7.65,1.42,8.84,5.24.55,1.78.66,3.72.85,5.59.84,8.12,1.64,16.25,2.44,24.38.06.6.23.93.86,1.2,1.07.46,2.16,1.03,3,1.81,7.81,7.19,15.56,14.45,23.34,21.68,3.62,3.36,5.38,7.5,5.38,12.42,0,8.09,0,16.19,0,24.28,0,.75,0,1.24-1.03,1.24-8.68-.04-17.37-.02-26.05-.03-.27,0-.53-.05-.94-.09ZM59.53,119.83v-20.84c0-3.5-1.22-6.47-3.78-8.85-7.76-7.24-15.53-14.48-23.31-21.7-.42-.39-.95-.74-1.48-.93-1.37-.46-2.72.13-3.44,1.36-.74,1.28-.51,2.74.69,3.85,2.06,1.9,4.15,3.77,6.23,5.65,3.86,3.5,7.72,7,11.64,10.55-1.07,1.17-2.09,2.3-3.13,3.45-6.11-5.55-12.19-10.94-18.12-16.49-3.82-3.58-2.99-9.58,1.53-12.19.55-.32.76-.62.69-1.3-.8-7.69-1.56-15.39-2.35-23.07-.19-1.92-.37-3.85-.73-5.74-.28-1.45-1.64-2.34-3.16-2.36-1.4,0-2.73.95-3.08,2.32-.16.6-.15,1.25-.15,1.87,0,14.88.02,29.76-.03,44.64,0,2.62.84,4.7,2.69,6.55,5.79,5.77,11.51,11.59,17.25,17.41,1.68,1.7,2.88,3.72,3.13,6.1.24,2.19.17,4.41.23,6.61.03,1.01,0,2.02,0,3.1h18.68Z"/>
</svg>