<svg width="28" height="27" viewBox="0 0 28 27" fill="none" xmlns="http://www.w3.org/2000/svg">
<path d="M8.82529 2.33154H18.2753C21.8753 2.33154 24.8003 5.14821 24.8003 8.61488V17.7149C24.8003 19.3813 24.1128 20.9795 22.8892 22.1579C21.6655 23.3362 20.0058 23.9982 18.2753 23.9982H8.82529C5.22529 23.9982 2.30029 21.1815 2.30029 17.7149V8.61488C2.30029 6.94843 2.98775 5.35024 4.21142 4.17189C5.4351 2.99354 7.09476 2.33154 8.82529 2.33154ZM8.60029 4.49821C7.52617 4.49821 6.49603 4.9091 5.73651 5.64049C4.97699 6.37189 4.55029 7.36387 4.55029 8.39821V17.9315C4.55029 20.0874 6.36154 21.8315 8.60029 21.8315H18.5003C19.5744 21.8315 20.6046 21.4207 21.3641 20.6893C22.1236 19.9579 22.5503 18.9659 22.5503 17.9315V8.39821C22.5503 6.24238 20.739 4.49821 18.5003 4.49821H8.60029ZM19.4565 6.12321C19.8295 6.12321 20.1872 6.26588 20.4509 6.51984C20.7146 6.77379 20.8628 7.11823 20.8628 7.47738C20.8628 7.83652 20.7146 8.18096 20.4509 8.43492C20.1872 8.68887 19.8295 8.83154 19.4565 8.83154C19.0836 8.83154 18.7259 8.68887 18.4622 8.43492C18.1985 8.18096 18.0503 7.83652 18.0503 7.47738C18.0503 7.11823 18.1985 6.77379 18.4622 6.51984C18.7259 6.26588 19.0836 6.12321 19.4565 6.12321ZM13.5503 7.74821C15.0421 7.74821 16.4729 8.31889 17.5278 9.33471C18.5827 10.3505 19.1753 11.7283 19.1753 13.1649C19.1753 14.6015 18.5827 15.9792 17.5278 16.995C16.4729 18.0109 15.0421 18.5815 13.5503 18.5815C12.0585 18.5815 10.6277 18.0109 9.57282 16.995C8.51793 15.9792 7.92529 14.6015 7.92529 13.1649C7.92529 11.7283 8.51793 10.3505 9.57282 9.33471C10.6277 8.31889 12.0585 7.74821 13.5503 7.74821ZM13.5503 9.91488C12.6552 9.91488 11.7967 10.2573 11.1638 10.8668C10.5309 11.4763 10.1753 12.3029 10.1753 13.1649C10.1753 14.0268 10.5309 14.8535 11.1638 15.463C11.7967 16.0725 12.6552 16.4149 13.5503 16.4149C14.4454 16.4149 15.3038 16.0725 15.9368 15.463C16.5697 14.8535 16.9253 14.0268 16.9253 13.1649C16.9253 12.3029 16.5697 11.4763 15.9368 10.8668C15.3038 10.2573 14.4454 9.91488 13.5503 9.91488Z" fill="#F5FEFF"/>
</svg>
