<?xml version="1.0" encoding="UTF-8"?>
<svg id="Layer_1" data-name="Layer 1" xmlns="http://www.w3.org/2000/svg" viewBox="0 0 145.98 141.4">
  <defs>
    <style>
      .cls-1 {
        fill: #177285;
        stroke-width: 0px;
      }
    </style>
    <!-- <filter id="f1">
      <feDropShadow dx="2.5" dy="2.5" stdDeviation="1.5" flood-opacity="0.3"/>
    </filter> -->
  </defs>
  <path class="cls-1" filter="url(#f1)" d="M127.28,51.72c-.44-9.37-4.66-18.17-11.68-24.39-11.74-10.53-29.06-11.98-42.38-3.53h0c-16.34-10.65-38.22-6.03-48.87,10.32-9.32,14.31-7.07,33.25,5.36,44.97l.94.85c-2.35,3.58-1.73,8.35,1.46,11.21l1.18,1.04c1.58,1.44,3.65,2.23,5.79,2.21h1.08v.33c.23,5.03,4.38,9,9.42,8.99h1.18c0,2.65,1.11,5.18,3.06,6.97,1.73,1.55,3.98,2.41,6.31,2.4.55.05,1.1.05,1.65,0v1.22c.17,2.59,1.4,4.99,3.39,6.64,1.71,1.53,3.92,2.39,6.22,2.4h.52c2.45-.15,4.75-1.24,6.4-3.06l6.07-6.73c.9-1.05,1.56-2.29,1.93-3.63.94.34,1.92.51,2.92.52,5.2.03,9.45-4.15,9.48-9.35,0-.38-.02-.77-.06-1.15h0c2.69-.05,5.22-1.25,6.97-3.3,2.12-2.35,2.91-5.6,2.12-8.66l10.59-10.64c6.31-6.98,9.54-16.22,8.95-25.62ZM36.4,88.68l-1.13-1.04c-1.64-1.48-1.76-4.01-.28-5.65l4.33-4.71c.75-.84,1.83-1.32,2.97-1.32.98,0,1.92.36,2.64,1.04l1.18,1.04c1.64,1.45,1.79,3.95.35,5.58,0,0-.01.01-.02.02l-1.27,1.41-3.06,3.39c-1.48,1.64-4.02,1.76-5.65.28-.01-.01-.03-.03-.04-.04ZM49.87,98.9c-1.26.07-2.5-.37-3.44-1.22-.94-.85-1.5-2.03-1.55-3.3-.08-1.26.34-2.5,1.18-3.44l3.81-4.24h0l4.33-4.71c.84-.96,2.03-1.53,3.3-1.6h.24c1.18,0,2.33.43,3.2,1.22,1.95,1.72,2.13,4.7.41,6.65-.03.03-.05.06-.08.09l-8.1,9.04c-.85.92-2.04,1.46-3.3,1.51ZM57.02,107.19c-1.95-1.72-2.13-4.7-.41-6.65.03-.03.05-.06.08-.09l8.1-9.04c.89-1.02,2.18-1.6,3.53-1.6,1.18.01,2.31.45,3.2,1.22.94.85,1.5,2.03,1.55,3.3.08,1.26-.34,2.5-1.18,3.44l-8.15,9.04c-1.71,1.96-4.68,2.17-6.64.46-.03-.03-.06-.05-.09-.08ZM80.85,110.2l-6.03,6.73c-.83.9-1.98,1.44-3.2,1.51-2.59.21-4.86-1.72-5.07-4.32-.01-.13-.02-.26-.02-.39-.05-1.21.38-2.39,1.18-3.3l6.03-6.73c.84-.96,2.06-1.51,3.34-1.51,1.27.03,2.49.51,3.44,1.37.93.83,1.49,2,1.55,3.25.06,1.25-.38,2.47-1.22,3.39ZM102.18,93.48c-1.73,1.93-4.7,2.1-6.64.38l-26.32-23.54c-.85-.91-2.28-.96-3.19-.1-.03.03-.07.07-.1.1-.91.89-.93,2.35-.03,3.26.01.01.02.02.03.03l26.32,23.54c1.93,1.73,2.1,4.7.38,6.64-1.65,1.7-4.21,2.12-6.31,1.04-1-4.15-4.68-7.11-8.95-7.2.4-1.15.56-2.37.47-3.58-.13-2.49-1.25-4.83-3.11-6.5-2.05-1.83-4.81-2.68-7.53-2.31v-.71c-.15-2.5-1.28-4.84-3.15-6.5-1.84-1.72-4.32-2.59-6.83-2.4-2.1.11-4.11.92-5.7,2.31-.5-1.36-1.32-2.57-2.4-3.53l-1.18-1.04c-3.52-3.17-8.93-2.96-12.2.47l-2.02,2.31-.89-.75c-12.22-11.68-12.66-31.05-.98-43.27,9.89-10.35,25.63-12.46,37.9-5.09l-26.6,28.25c-1.08,1.21-1.64,2.8-1.55,4.43.09,1.64.81,3.18,2.02,4.28,2.08,2.04,4.86,3.21,7.77,3.3,5.3-.54,10.12-3.29,13.28-7.58l11.49-12.85,19.31,15.54,12.29,11.02c.93.83,1.49,2,1.55,3.25.07,1.24-.35,2.46-1.18,3.39-.83.93-2,1.49-3.25,1.55-1.24.07-2.46-.35-3.39-1.18l-22.79-20.72c-.93-.9-2.41-.9-3.34,0-.92.92-.93,2.41-.01,3.33,0,0,0,0,.01.01l22.79,20.44h0l3.48,3.15c2.03,1.62,2.37,4.59.74,6.62-.06.07-.12.14-.18.21ZM113.81,75.07c-.34-2.08-1.37-3.99-2.92-5.42l-12.38-11.07-20.86-16.81h0c-1.01-.83-2.49-.7-3.34.28l-13.14,14.27c-7.35,8.1-11.35,6.87-14.41,4.1-.29-.25-.46-.61-.47-.99-.04-.36.08-.72.33-.99l28.54-30.28c14-9.42,32.99-5.7,42.41,8.3,7.78,11.57,6.74,26.95-2.53,37.37l-1.22,1.22Z"/>
</svg>