<svg width="28" height="27" viewBox="0 0 28 27" fill="none" xmlns="http://www.w3.org/2000/svg">
<path d="M22.3052 3.41504C22.9019 3.41504 23.4742 3.64331 23.8962 4.04964C24.3181 4.45597 24.5552 5.00707 24.5552 5.58171V20.7484C24.5552 21.323 24.3181 21.8741 23.8962 22.2804C23.4742 22.6868 22.9019 22.915 22.3052 22.915H6.55518C5.95844 22.915 5.38614 22.6868 4.96419 22.2804C4.54223 21.8741 4.30518 21.323 4.30518 20.7484V5.58171C4.30518 5.00707 4.54223 4.45597 4.96419 4.04964C5.38614 3.64331 5.95844 3.41504 6.55518 3.41504H22.3052ZM21.7427 20.2067V14.465C21.7427 13.5284 21.3563 12.6301 20.6685 11.9678C19.9807 11.3055 19.0479 10.9334 18.0752 10.9334C17.1189 10.9334 16.0052 11.4967 15.4652 12.3417V11.1392H12.3264V20.2067H15.4652V14.8659C15.4652 14.0317 16.1627 13.3492 17.0289 13.3492C17.4466 13.3492 17.8472 13.509 18.1426 13.7934C18.438 14.0779 18.6039 14.4636 18.6039 14.8659V20.2067H21.7427ZM8.67018 9.43837C9.17143 9.43837 9.65216 9.24662 10.0066 8.90531C10.3611 8.56399 10.5602 8.10107 10.5602 7.61837C10.5602 6.61087 9.71643 5.78754 8.67018 5.78754C8.16593 5.78754 7.68234 5.98043 7.32579 6.32378C6.96924 6.66713 6.76893 7.13281 6.76893 7.61837C6.76893 8.62587 7.62393 9.43837 8.67018 9.43837ZM10.2339 20.2067V11.1392H7.11768V20.2067H10.2339Z" fill="#F5FEFF"/>
</svg>
