<?xml version="1.0" encoding="UTF-8"?>
<svg id="Layer_1" data-name="Layer 1" xmlns="http://www.w3.org/2000/svg" viewBox="0 0 145.98 141.4">
  <defs>
    <style>
      .cls-1 {
        fill: #177285;
        stroke-width: 0px;
      }
    </style>
    <!-- <filter id="f1">
      <feDropShadow dx="2.5" dy="2.5" stdDeviation="1.5" flood-opacity="0.3"/>
    </filter> -->
  </defs>
  <path class="cls-1" filter="url(#f1)" d="M39.65,20.13c-3.1-.75-3.75-1.59-3.76-4.71,0-.95-.01-1.89,0-2.84.04-2.53,1.31-3.82,3.83-3.83,5.36-.02,10.71,0,16.07,0,1.22,0,2.43-.03,3.65,0,2.19.06,3.51,1.38,3.56,3.55.03,1.26.02,2.52,0,3.78-.03,2.48-1.23,3.73-3.68,3.86-.21.01-.41.03-.69.06,1.02,1.14,2.07,2.12,2.88,3.27.78,1.13,1.31,2.43,2.02,3.79,1.08-.18,2.31-.4,3.54-.58,1.49-.22,2.37.47,2.38,1.98.02,12.24.02,24.48,0,36.72,0,1.45-.72,2-2.43,2-11.12,0-22.24,0-33.35,0-.99,0-1.98.03-2.97,0-1.43-.05-2.13-.89-1.96-2.29.06-.49.09-.99.23-1.46.91-3.13.92-6.07-.18-9.33-1.45-4.3.11-8.53,2.31-12.37,2.03-3.55,4.01-7.15,6.35-10.5,2.43-3.48,2.16-7.28,2.2-11.1ZM65.91,30.36c-1.62-.11-2.5.4-2.6,2.12-.06,1.09-.62,2.15-.88,3.24-.25,1.03-.55,2.08-.58,3.13-.08,3.06.04,6.12-.05,9.18-.11,3.77-2.97,6.53-6.56,6.47-3.59-.06-6.29-2.92-6.31-6.71-.02-3.06,0-6.12,0-9.18,0-.32-.07-.64-.11-1.02-8.02,5.18-15.18,16.72-16.21,26h33.32V30.36ZM32.01,52.87c.28-.49.38-.64.45-.8,2.44-5.3,5.76-9.97,10.07-13.89,2.25-2.05,4.65-3.95,7.08-5.79.43-.33,1.55-.33,1.93,0,.51.45.85,1.37.86,2.09.08,4.41.05,8.82.03,13.23,0,1.34.47,2.38,1.7,2.98,1.98.96,4.1-.45,4.16-2.85.07-2.65.07-5.31,0-7.97-.05-2.09.23-4.04,1.03-6.03,1.76-4.39.78-7.93-2.75-10.73-1.02-.81-2.01-1.54-1.7-3.08h-11.74c0,1.24-.04,2.4,0,3.56.15,3.45-.83,6.52-2.7,9.43-2.19,3.4-4.23,6.9-6.26,10.4-1.62,2.8-2.62,5.78-2.17,9.45ZM59.41,16.36v-4.01h-19.93v4.01h19.93Z"/>
  <path class="cls-1" filter="url(#f1)" d="M106.37,121.35c2.84.5,3.7,1.53,3.71,4.32,0,1.22.03,2.43-.02,3.65-.09,1.92-1.33,3.29-3.23,3.3-6.89.06-13.77.05-20.66,0-1.87-.02-3.13-1.45-3.19-3.34-.04-1.3-.02-2.61-.01-3.92.02-2.55,1.22-3.77,3.78-3.89.17,0,.34-.03.82-.08-2.43-1.98-4.19-4.19-4.92-7.09-1.17.18-2.23.35-3.29.52-2.19.34-2.84-.23-2.84-2.49,0-7.92,0-15.84,0-23.77,0-3.92,0-7.83,0-11.75,0-2.04.53-2.59,2.51-2.59,11.93,0,23.86,0,35.79,0,2.04,0,2.65.74,2.32,2.77-.11.67-.16,1.35-.34,1.99-.74,2.62-.7,5.03.26,7.75,1.62,4.56.08,8.97-2.23,13.02-1.93,3.4-3.83,6.84-6.08,10.04-2.51,3.56-2.54,7.46-2.38,11.56ZM80.08,77.77v33.31c2.12-.23,2.09-.24,2.52-2.12.24-1.05.64-2.06.89-3.11.27-1.16.6-2.34.63-3.52.09-2.97-.03-5.94.05-8.91.1-3.77,2.92-6.53,6.53-6.5,3.6.03,6.32,2.88,6.35,6.66.02,2.79,0,5.58,0,8.37,0,.6,0,1.2,0,2.08,9.01-6.8,14.4-15.42,16.43-26.26h-33.4ZM113.98,88.52c-.33.6-.49.86-.62,1.14-2.87,6.14-6.97,11.32-12.21,15.6-1.32,1.08-2.81,1.96-4.07,3.11-.72.65-1.32,1.28-2.31.91-1.11-.42-1.25-1.39-1.24-2.45.02-4.05,0-8.1,0-12.16,0-.36,0-.72,0-1.08-.05-1.83-1.18-3.11-2.82-3.16-1.7-.06-2.98,1.18-3.03,3.1-.06,2.65-.06,5.31,0,7.97.04,2.08-.21,4.04-1.01,6.03-1.8,4.46-.76,8.11,2.92,10.91,1.01.77,1.73,1.55,1.51,2.96h11.74c0-1.21.04-2.37,0-3.52-.15-3.45.8-6.53,2.67-9.44,2.19-3.4,4.23-6.9,6.27-10.4,1.63-2.81,2.62-5.8,2.22-9.51ZM106.48,125.08h-19.94v4h19.94v-4Z"/>
  <path class="cls-1" filter="url(#f1)" d="M123.64,37.39c.49-2.85,1.54-3.75,4.21-3.76,1.26,0,2.52-.03,3.78.02,1.9.08,3.27,1.34,3.28,3.25.05,6.84.05,13.68,0,20.52-.01,1.96-1.41,3.24-3.37,3.31-1.3.05-2.61.03-3.92.02-2.54-.03-3.75-1.22-3.88-3.81,0-.17-.04-.33-.09-.77-1.96,2.38-4.14,4.11-7.07,4.89.2,1.22.39,2.41.57,3.59.27,1.67-.4,2.54-2.06,2.54-12.15.01-24.31.01-36.46,0-1.5,0-2.14-.65-2.14-2.15-.01-12.15-.01-24.3,0-36.45,0-1.66.87-2.36,2.53-2.06,1.9.35,3.78.8,5.68,1.16.46.09,1.03.17,1.41-.02,5.52-2.83,10.76-1.65,15.82,1.17,3.69,2.06,7.37,4.17,10.86,6.54,3.39,2.3,7.08,1.91,10.83,2.01ZM106.33,46.66c-6.79-9.02-15.42-14.4-26.21-16.43v33.37h33.21c.15-1.61-.51-2.15-2.08-2.6-3.49-.98-6.93-1.78-10.58-1.48-1.52.12-3.06.06-4.59,0-.8-.03-1.63-.11-2.39-.34-3-.92-4.9-3.98-4.43-7.03.49-3.12,3.09-5.45,6.25-5.49,3.5-.04,6.99,0,10.82,0ZM90.81,29.73c.57.3.79.44,1.03.55,6.9,3.25,12.59,7.96,17.13,14.08.72.97,1.51,1.88,2.29,2.8.76.91.53,2.21-.57,2.72-.47.22-1.04.27-1.57.27-4.28.02-8.55,0-12.83.02-.49,0-1,0-1.47.13-1.36.37-2.24,1.71-2.09,3.09.17,1.53,1.33,2.59,3.09,2.62,3.11.05,6.22-.06,9.32.06,1.35.05,2.76.32,4.02.81,4.84,1.89,8.62,1.08,11.57-2.76.77-1,1.55-1.73,2.95-1.52v-11.74c-1.27,0-2.47-.05-3.67,0-3.41.15-6.44-.84-9.3-2.68-3.41-2.18-6.9-4.23-10.4-6.26-2.8-1.63-5.8-2.63-9.5-2.2ZM127.38,37.2v19.94h3.96v-19.94h-3.96Z"/>
  <path class="cls-1" filter="url(#f1)" d="M22.33,104.08c-.51,2.83-1.55,3.7-4.32,3.71-1.22,0-2.43.03-3.65-.03-1.91-.09-3.29-1.34-3.3-3.23-.05-6.88-.05-13.77,0-20.66.02-1.87,1.44-3.13,3.34-3.19,1.3-.04,2.61-.02,3.92-.01,2.55.02,3.78,1.22,3.9,3.78,0,.17.03.34.08.84,1.95-2.48,4.21-4.18,7.07-4.95-.19-1.21-.36-2.31-.54-3.42-.31-1.93.31-2.7,2.26-2.7,7.47,0,14.94,0,22.42,0,4.46,0,8.91,0,13.37,0,2.03,0,2.59.54,2.59,2.52,0,11.93,0,23.85,0,35.78,0,2.03-.74,2.64-2.77,2.31-.67-.11-1.35-.16-1.99-.34-2.62-.74-5.03-.71-7.75.26-4.51,1.61-8.88.1-12.9-2.17-3.44-1.95-6.92-3.87-10.16-6.14-3.56-2.5-7.45-2.55-11.56-2.37ZM65.89,77.81h-33.31c.28,2.11.28,2.08,2.17,2.51,1.05.24,2.06.64,3.11.89,1.12.26,2.26.58,3.39.61,3.01.09,6.03-.04,9.05.06,3.78.12,6.53,2.97,6.47,6.56-.06,3.59-2.91,6.3-6.7,6.32-3.06.02-6.12,0-9.19,0-.32,0-.64.07-1.13.12,6.7,8.88,15.32,14.26,26.14,16.29v-33.38ZM22.28,100.55c1.33,0,2.5.04,3.66,0,3.35-.13,6.36.79,9.19,2.6,3.37,2.16,6.81,4.21,10.3,6.18,1.51.85,3.16,1.55,4.82,2.03,1.44.41,3,.39,4.51.56.02-.13.04-.27.06-.4-.23-.12-.45-.26-.68-.37-6.09-2.85-11.28-6.88-15.55-12.06-1.14-1.39-2.07-2.95-3.29-4.27-.7-.76-1.32-1.41-.86-2.44.45-1.01,1.4-1.12,2.4-1.11,4.05.02,8.11,0,12.16,0,.36,0,.72,0,1.08,0,1.84-.05,3.11-1.19,3.17-2.82.06-1.69-1.19-2.99-3.1-3.04-2.7-.07-5.4-.06-8.1-.01-2.04.04-3.95-.22-5.89-1.01-4.35-1.76-7.87-.83-10.66,2.6-.87,1.07-1.63,2.15-3.22,1.85v11.72ZM18.61,104.2v-19.94h-4v19.94h4Z"/>
</svg>