<svg width="28" height="27" viewBox="0 0 28 27" fill="none" xmlns="http://www.w3.org/2000/svg">
<path d="M11.7402 16.4149L17.579 13.1649L11.7402 9.91488V16.4149ZM24.7452 7.93238C24.8915 8.44154 24.9927 9.12404 25.0602 9.99071C25.139 10.8574 25.1727 11.6049 25.1727 12.2549L25.2402 13.1649C25.2402 15.5374 25.0602 17.2815 24.7452 18.3974C24.464 19.3724 23.8115 20.0007 22.799 20.2715C22.2702 20.4124 21.3027 20.5099 19.8177 20.5749C18.3552 20.6507 17.0165 20.6832 15.779 20.6832L13.9902 20.7482C9.27648 20.7482 6.34023 20.5749 5.18148 20.2715C4.16898 20.0007 3.51648 19.3724 3.23523 18.3974C3.08898 17.8882 2.98773 17.2057 2.92023 16.339C2.84148 15.4724 2.80773 14.7249 2.80773 14.0749L2.74023 13.1649C2.74023 10.7924 2.92023 9.04821 3.23523 7.93238C3.51648 6.95738 4.16898 6.32904 5.18148 6.05821C5.71023 5.91738 6.67773 5.81988 8.16273 5.75488C9.62524 5.67904 10.964 5.64654 12.2015 5.64654L13.9902 5.58154C18.704 5.58154 21.6402 5.75488 22.799 6.05821C23.8115 6.32904 24.464 6.95738 24.7452 7.93238Z" fill="#F5FEFF"/>
</svg>
