<svg width="262" height="99" viewBox="0 0 262 99" fill="none" xmlns="http://www.w3.org/2000/svg">
<path d="M75.9753 1.27612C103.009 1.27612 115.134 20.7934 115.134 20.7934C115.134 20.7934 91.2578 16.1556 75.9753 17.5406C58.0275 19.167 43.3428 32.1042 43.3428 50.0694C43.3428 68.0346 57.9529 83.8414 75.9753 83.8414C105.034 83.8414 119.641 63.1224 132.072 48.2047C132.072 48.2047 121.661 98.8627 75.9753 98.8627C48.9417 98.8627 27.0266 77.0172 27.0266 50.0694C27.0266 23.1216 48.9417 1.27612 75.9753 1.27612Z" fill="#177285"/>
<path d="M186.926 98.2412C159.892 98.2412 147.767 78.7239 147.767 78.7239C147.767 78.7239 171.643 83.3617 186.926 81.9768C204.874 80.3503 219.558 67.4131 219.558 49.4479C219.558 31.4827 204.948 15.6759 186.926 15.6759C157.867 15.6759 143.26 35.7734 130.829 50.6911C130.829 50.6911 141.24 0.654618 186.926 0.654614C213.959 0.654612 235.875 22.5001 235.875 49.4479C235.875 76.3957 213.959 98.2412 186.926 98.2412Z" fill="#177285"/>
<circle cx="22.0543" cy="51.6236" r="21.1334" fill="#177285"/>
<circle cx="240.847" cy="51.6236" r="21.1334" fill="#177285"/>
</svg>
